<svg width="98" height="76" viewBox="0 0 98 76" fill="none" xmlns="http://www.w3.org/2000/svg">
<path d="M5.77854 24.5565L5.20278 24.0759L5.77854 24.5565ZM92.2212 24.5566L91.6455 25.0372L91.6455 25.0372L92.2212 24.5566ZM92.2212 51.4435L91.6455 50.9628L91.6455 50.9628L92.2212 51.4435ZM5.77854 51.4434L5.20278 51.9241L5.77854 51.4434ZM6.3543 25.0372C15.0675 14.5993 29.6109 2 48.9999 2V0.5C28.9362 0.5 14.0104 13.5249 5.20278 24.0759L6.3543 25.0372ZM48.9999 2C68.3889 2 82.9322 14.5993 91.6455 25.0372L92.797 24.0759C83.9894 13.525 69.0635 0.5 48.9999 0.5V2ZM91.6455 50.9628C82.9322 61.4007 68.3889 74 48.9999 74V75.5C69.0635 75.5 83.9894 62.4751 92.797 51.9241L91.6455 50.9628ZM48.9999 74C29.6109 74 15.0675 61.4007 6.3543 50.9628L5.20278 51.9241C14.0104 62.475 28.9362 75.5 48.9999 75.5V74ZM91.6455 25.0372C97.987 32.634 97.987 43.366 91.6455 50.9628L92.797 51.9241C99.6032 43.7707 99.6032 32.2293 92.797 24.0759L91.6455 25.0372ZM5.20278 24.0759C-1.6034 32.2293 -1.6034 43.7707 5.20278 51.9241L6.3543 50.9628C0.0127574 43.366 0.0127597 32.634 6.3543 25.0372L5.20278 24.0759ZM63.9998 38C63.9998 46.2843 57.2841 53 48.9998 53V54.5C58.1125 54.5 65.4998 47.1127 65.4998 38H63.9998ZM48.9998 53C40.7156 53 33.9998 46.2843 33.9998 38H32.4998C32.4998 47.1127 39.8871 54.5 48.9998 54.5V53ZM33.9998 38C33.9998 29.7157 40.7156 23 48.9998 23V21.5C39.8871 21.5 32.4998 28.8873 32.4998 38H33.9998ZM48.9998 23C57.2841 23 63.9998 29.7157 63.9998 38H65.4998C65.4998 28.8873 58.1125 21.5 48.9998 21.5V23Z" fill="white"/>
</svg>
