<svg width="86" height="60" viewBox="0 0 86 60" fill="none" xmlns="http://www.w3.org/2000/svg">
<path d="M85.5304 1.28033C85.8233 0.987437 85.8233 0.512563 85.5304 0.21967C85.2375 -0.0732233 84.7626 -0.0732233 84.4697 0.21967L85.5304 1.28033ZM27.2503 58.4998L26.72 59.0301C27.0129 59.323 27.4877 59.323 27.7806 59.0301L27.2503 58.4998ZM1.53008 31.7197C1.23718 31.4268 0.762307 31.4268 0.469418 31.7197C0.176529 32.0126 0.176536 32.4874 0.469433 32.7803L1.53008 31.7197ZM84.4697 0.21967L26.72 57.9694L27.7806 59.0301L85.5304 1.28033L84.4697 0.21967ZM0.469433 32.7803L26.72 59.0301L27.7806 57.9694L1.53008 31.7197L0.469433 32.7803Z" fill="white"/>
</svg>
