<svg width="92" height="93" viewBox="0 0 92 93" fill="none" xmlns="http://www.w3.org/2000/svg">
<path d="M56.2084 57.4844L56.7387 58.0147L56.7387 58.0147L56.2084 57.4844ZM3.70833 88.9844L3.178 89.5147L3.70833 88.9844ZM17.4921 90.7455L17.6196 91.4846L17.4921 90.7455ZM29.9665 83.7262L29.4362 83.1959L29.4362 83.1959L29.9665 83.7262ZM1.94724 75.2006L2.68633 75.3281L1.94724 75.2006ZM8.96648 62.7262L8.43615 62.1959L8.43615 62.1959L8.96648 62.7262ZM0.625 46C0.625 46.4142 0.960786 46.75 1.375 46.75C1.78921 46.75 2.125 46.4142 2.125 46H0.625ZM46 89.875C45.5858 89.875 45.25 90.2108 45.25 90.625C45.25 91.0392 45.5858 91.375 46 91.375V89.875ZM56.7387 56.954L35.7387 35.954L34.6781 37.0147L55.6781 58.0147L56.7387 56.954ZM17.3646 90.0064C14.9609 90.421 12.3026 90.6903 9.91131 90.5116C7.50008 90.3313 5.48962 89.705 4.23866 88.454L3.178 89.5147C4.80662 91.1433 7.25516 91.8172 9.79949 92.0074C12.3637 92.1991 15.1575 91.9092 17.6196 91.4846L17.3646 90.0064ZM4.23866 88.454C2.98771 87.2031 2.3614 85.1926 2.18115 82.7814C2.00239 80.3901 2.27175 77.7318 2.68633 75.3281L1.20815 75.0731C0.783514 77.5352 0.493633 80.329 0.685325 82.8932C0.875528 85.4375 1.54938 87.8861 3.178 89.5147L4.23866 88.454ZM9.49681 63.2566L35.7387 37.0147L34.6781 35.954L8.43615 62.1959L9.49681 63.2566ZM55.6781 56.954L29.4362 83.1959L30.4968 84.2566L56.7387 58.0147L55.6781 56.954ZM35.2084 36.4844C35.7387 37.0147 35.7386 37.0148 35.7386 37.0149C35.7386 37.0148 35.7386 37.0148 35.7388 37.0147C35.739 37.0144 35.7395 37.0139 35.7402 37.0132C35.7417 37.0118 35.7441 37.0094 35.7474 37.0061C35.754 36.9995 35.7644 36.9893 35.7785 36.9755C35.8066 36.948 35.8494 36.9064 35.9063 36.852C36.0199 36.7433 36.1896 36.5836 36.4102 36.3831C36.8515 35.9819 37.4957 35.4181 38.3019 34.7732C39.9174 33.4808 42.1689 31.8739 44.7313 30.5927C49.8889 28.0139 56.0303 26.867 60.928 31.7647L61.9887 30.704C56.3864 25.1018 49.4028 26.5799 44.0605 29.2511C41.3728 30.5949 39.0307 32.2692 37.3649 33.6018C36.5305 34.2694 35.8622 34.854 35.4012 35.2732C35.1706 35.4828 34.9916 35.6512 34.8694 35.7681C34.8083 35.8265 34.7614 35.8721 34.7293 35.9035C34.7133 35.9192 34.7009 35.9314 34.6923 35.9399C34.6881 35.9441 34.6847 35.9474 34.6823 35.9498C34.6812 35.951 34.6802 35.9519 34.6795 35.9526C34.6791 35.953 34.6788 35.9533 34.6786 35.9535C34.6783 35.9538 34.6781 35.954 35.2084 36.4844ZM60.928 31.7647C65.8257 36.6624 64.6788 42.8038 62.1 47.9615C60.8189 50.5238 59.212 52.7754 57.9196 54.3909C57.2746 55.1971 56.7109 55.8413 56.3097 56.2826C56.1092 56.5032 55.9495 56.6729 55.8407 56.7865C55.7864 56.8433 55.7448 56.8861 55.7173 56.9143C55.7035 56.9283 55.6932 56.9387 55.6867 56.9454C55.6834 56.9487 55.681 56.9511 55.6795 56.9526C55.6788 56.9533 55.6783 56.9538 55.6781 56.954C55.678 56.9541 55.678 56.9541 55.6779 56.9542C55.678 56.9542 55.6781 56.954 56.2084 57.4844C56.7387 58.0147 56.739 58.0145 56.7393 58.0142C56.7394 58.014 56.7398 58.0136 56.7401 58.0133C56.7409 58.0126 56.7418 58.0116 56.743 58.0104C56.7454 58.0081 56.7487 58.0047 56.7529 58.0004C56.7614 57.9919 56.7736 57.9795 56.7893 57.9635C56.8207 57.9314 56.8663 57.8844 56.9247 57.8233C57.0416 57.7012 57.21 57.5222 57.4196 57.2916C57.8387 56.8306 58.4234 56.1623 59.0909 55.3279C60.4235 53.6621 62.0979 51.3199 63.4417 48.6323C66.1129 43.2899 67.5909 36.3063 61.9887 30.704L60.928 31.7647ZM17.6196 91.4846C22.6398 90.6187 26.9703 87.7831 30.4968 84.2566L29.4362 83.1959C26.0468 86.5852 21.9826 89.2099 17.3646 90.0064L17.6196 91.4846ZM2.68633 75.3281C3.4828 70.7101 6.1075 66.6459 9.49681 63.2566L8.43615 62.1959C4.90964 65.7224 2.074 70.0529 1.20815 75.0731L2.68633 75.3281ZM2.125 46C2.125 28.9654 4.75773 18.0842 11.421 11.421C18.0842 4.75773 28.9654 2.125 46 2.125V0.625C28.9096 0.625 17.4783 3.24227 10.3603 10.3603C3.24227 17.4783 0.625 28.9096 0.625 46H2.125ZM89.875 46C89.875 63.0346 87.2423 73.9158 80.579 80.579C73.9158 87.2423 63.0346 89.875 46 89.875V91.375C63.0904 91.375 74.5217 88.7577 81.6397 81.6397C88.7577 74.5217 91.375 63.0904 91.375 46H89.875ZM46 2.125C63.0346 2.125 73.9158 4.75773 80.579 11.421C87.2423 18.0842 89.875 28.9654 89.875 46H91.375C91.375 28.9096 88.7577 17.4783 81.6397 10.3603C74.5217 3.24227 63.0904 0.625 46 0.625V2.125Z" fill="white"/>
</svg>
