<svg width="126" height="126" viewBox="0 0 126 126" fill="none" xmlns="http://www.w3.org/2000/svg">
<path d="M42 105L42 105.75H42L42 105ZM91.1421 105V104.25V105ZM101.438 96.5591L100.703 96.412L101.438 96.5591ZM107.738 65.0591L108.474 65.2062L107.738 65.0591ZM73.5 52.4999L72.876 52.0839C72.7225 52.314 72.7082 52.6099 72.8387 52.8538C72.9693 53.0977 73.2234 53.2499 73.5 53.2499V52.4999ZM86.2352 33.3971L86.8593 33.8131L86.2352 33.3971ZM80.0453 17.3862L79.8634 18.1138V18.1138L80.0453 17.3862ZM79.7956 17.3238L79.9775 16.5962V16.5962L79.7956 17.3238ZM21 52.4999L21 51.7499C20.8011 51.7499 20.6103 51.8289 20.4697 51.9696C20.329 52.1102 20.25 52.301 20.25 52.4999H21ZM21 105H20.25C20.25 105.414 20.5858 105.75 21 105.75L21 105ZM69.2768 20.677L68.7073 20.1889V20.1889L69.2768 20.677ZM41.25 52.5V105H42.75V52.5H41.25ZM42 105.75L91.1421 105.75V104.25L42 104.25L42 105.75ZM102.174 96.7062L108.474 65.2062L107.003 64.912L100.703 96.412L102.174 96.7062ZM97.4421 51.7499H73.5V53.2499H97.4421V51.7499ZM74.124 52.9159L86.8593 33.8131L85.6112 32.981L72.876 52.0839L74.124 52.9159ZM80.2272 16.6586L79.9775 16.5962L79.6137 18.0514L79.8634 18.1138L80.2272 16.6586ZM42 51.75L21 51.7499L21 53.2499L42 53.25L42 51.75ZM20.25 52.4999V105H21.75V52.4999H20.25ZM21 105.75L42 105.75L42 104.25L21 104.25L21 105.75ZM79.9775 16.5962C75.8435 15.5627 71.4805 16.9536 68.7073 20.1889L69.8462 21.1651C72.2496 18.3611 76.0309 17.1557 79.6137 18.0514L79.9775 16.5962ZM86.8593 33.8131C91.1747 27.34 87.7747 18.5455 80.2272 16.6586L79.8634 18.1138C86.4045 19.7491 89.3512 27.371 85.6112 32.981L86.8593 33.8131ZM108.474 65.2062C109.866 58.2448 104.541 51.7499 97.4421 51.7499V53.2499C103.595 53.2499 108.209 58.8788 107.003 64.912L108.474 65.2062ZM91.1421 105.75C96.5047 105.75 101.122 101.965 102.174 96.7062L100.703 96.412C99.7912 100.969 95.7897 104.25 91.1421 104.25V105.75ZM68.7073 20.1889L41.4306 52.0119L42.5694 52.9881L69.8462 21.1651L68.7073 20.1889Z" fill="white"/>
</svg>
