<svg width="7" height="12" viewBox="0 0 7 12" fill="none" xmlns="http://www.w3.org/2000/svg">
<path d="M2.16294 0.515991C2.58094 0.923991 6.66494 5.21099 6.66494 5.21099C6.7708 5.31313 6.85499 5.43554 6.91249 5.57093C6.96999 5.70631 6.99963 5.8519 6.99963 5.99899C6.99963 6.14608 6.96999 6.29167 6.91249 6.42706C6.85499 6.56244 6.7708 6.68486 6.66494 6.78699C6.66494 6.78699 2.58094 11.076 2.16294 11.482C1.74494 11.89 0.992944 11.918 0.547944 11.482C0.101944 11.048 0.0669441 10.441 0.547944 9.90799L4.29494 5.99999L0.547944 2.09199C0.0669441 1.55899 0.101944 0.950992 0.547944 0.515991C0.992944 0.0799915 1.74494 0.106991 2.16294 0.515991Z" fill="white"/>
</svg>
