<svg width="126" height="126" viewBox="0 0 126 126" fill="none" xmlns="http://www.w3.org/2000/svg">
<path d="M19.1358 78.4517C18.9982 78.0611 18.5699 77.8559 18.1792 77.9936C17.7885 78.1312 17.5834 78.5595 17.7211 78.9502L19.1358 78.4517ZM36.8134 102.333L36.3979 102.958L36.8134 102.333ZM93.5199 99.0697L94.0044 99.6422L93.5199 99.0697ZM106.123 43.6893L106.808 43.3827L106.123 43.6893ZM85.8581 21.648L86.2209 20.9916L85.8581 21.648ZM56.4132 16.2109L56.5177 16.9536L56.4132 16.2109ZM15.75 42H15C15 42.4142 15.3358 42.75 15.75 42.75V42ZM16.5 10.5C16.5 10.0858 16.1642 9.75 15.75 9.75C15.3358 9.75 15 10.0858 15 10.5H16.5ZM47.25 42.75C47.6642 42.75 48 42.4142 48 42C48 41.5858 47.6642 41.25 47.25 41.25V42.75ZM17.7211 78.9502C21.1794 88.7655 27.7342 97.1912 36.3979 102.958L37.229 101.709C28.8361 96.1226 22.4861 87.9603 19.1358 78.4517L17.7211 78.9502ZM36.3979 102.958C45.0615 108.724 55.3647 111.519 65.7549 110.921L65.6687 109.423C55.6031 110.002 45.6219 107.295 37.229 101.709L36.3979 102.958ZM65.7549 110.921C76.1451 110.323 86.0595 106.364 94.0044 99.6422L93.0355 98.4971C85.3389 105.009 75.7343 108.844 65.6687 109.423L65.7549 110.921ZM94.0044 99.6422C101.949 92.92 107.494 83.7981 109.803 73.6508L108.341 73.3179C106.104 83.1481 100.732 91.985 93.0355 98.4971L94.0044 99.6422ZM109.803 73.6508C112.113 63.5035 111.061 52.8806 106.808 43.3827L105.439 43.9958C109.559 53.1969 110.578 63.4878 108.341 73.3179L109.803 73.6508ZM106.808 43.3827C102.554 33.8848 95.3292 26.0265 86.2209 20.9916L85.4953 22.3044C94.319 27.1819 101.318 34.7947 105.439 43.9958L106.808 43.3827ZM86.2209 20.9916C77.1126 15.9568 66.6146 14.0183 56.3087 15.4682L56.5177 16.9536C66.5016 15.549 76.6715 17.4269 85.4953 22.3044L86.2209 20.9916ZM56.3087 15.4682C38.896 17.9179 27.3759 30.5597 15.2491 41.4418L16.2509 42.5582C28.5625 31.5103 39.6747 19.3231 56.5177 16.9536L56.3087 15.4682ZM15 10.5V42H16.5V10.5H15ZM15.75 42.75H47.25V41.25H15.75V42.75Z" fill="white"/>
</svg>
